<svg width="120" height="120" viewBox="0 0 120 120" fill="none" xmlns="http://www.w3.org/2000/svg">
<path d="M60 19V57.5858C60 58.4767 61.0771 58.9229 61.7071 58.2929L88.9914 31.0086L61.7071 58.2929C61.0771 58.9229 61.5233 60 62.4142 60H101H62.4142C61.5233 60 61.0771 61.0771 61.7071 61.7071L88.9914 88.9914L61.7071 61.7071C61.0771 61.0771 60 61.5233 60 62.4142V101V62.4142C60 61.5233 58.9229 61.0771 58.2929 61.7071L31.0086 88.9914L58.2929 61.7071C58.9229 61.0771 58.4767 60 57.5858 60H19H57.5858C58.4767 60 58.9229 58.9229 58.2929 58.2929L31.0086 31.0086L58.2929 58.2929C58.9229 58.9229 60 58.4767 60 57.5858V19Z" fill="#C4C4C4" stroke="#02DFEE" stroke-width="3"/>
<path d="M57 57.5V62.5C57 62.7761 57.2239 63 57.5 63H62.5C62.7761 63 63 62.7761 63 62.5V57.5C63 57.2239 62.7761 57 62.5 57H57.5C57.2239 57 57 57.2239 57 57.5Z" stroke="#02DFEE" stroke-width="7"/>
<circle cx="60" cy="60" r="50" stroke="#02DFEE" stroke-width="20" stroke-dasharray="4 30"/>
<circle cx="60" cy="60" r="41.5" stroke="#02DFEE" stroke-width="3"/>
</svg>
